<?xml version="1.0" standalone="no"?>
<!DOCTYPE svg PUBLIC "-//W3C//DTD SVG 20010904//EN"
 "http://www.w3.org/TR/2001/REC-SVG-20010904/DTD/svg10.dtd">
<svg version="1.0" xmlns="http://www.w3.org/2000/svg"
 width="700.000000pt" height="700.000000pt" viewBox="0 0 700.000000 700.000000"
 preserveAspectRatio="xMidYMid meet">
<metadata>
Created by potrace 1.14, written by Peter Selinger 2001-2017
</metadata>
<g transform="translate(0.000000,700.000000) scale(0.100000,-0.100000)"
fill="#000000" stroke="none">
<path d="M3165 6989 c-49 -5 -158 -20 -241 -34 -1104 -185 -2053 -885 -2554
-1886 -193 -383 -308 -782 -355 -1224 -17 -163 -19 -490 -5 -655 110 -1204
838 -2278 1909 -2814 364 -183 720 -293 1136 -352 152 -21 578 -30 747 -14
1312 119 2439 948 2938 2161 127 310 208 632 245 984 17 163 19 490 5 655 -41
450 -169 888 -379 1295 -346 672 -879 1196 -1556 1530 -408 202 -782 308
-1244 355 -120 12 -515 11 -646 -1z m383 -1260 c92 -23 171 -45 176 -50 7 -6
-103 -480 -139 -599 -4 -13 22 -22 132 -48 76 -18 148 -35 159 -38 21 -5 25 9
95 293 40 164 76 302 79 306 7 8 334 -67 359 -82 11 -7 0 -64 -59 -306 -40
-164 -73 -304 -74 -311 -1 -9 46 -33 124 -65 497 -200 697 -466 636 -842 -45
-276 -177 -444 -415 -528 l-75 -26 34 -18 c113 -58 234 -164 292 -256 121
-189 121 -438 2 -724 -178 -425 -538 -567 -1184 -468 -58 9 -114 16 -124 17
-17 1 -28 -35 -99 -315 l-79 -316 -184 46 c-108 27 -184 50 -184 57 0 11 134
567 145 604 4 12 -27 23 -150 55 -85 21 -156 37 -158 35 -2 -3 -37 -139 -78
-303 -41 -165 -77 -304 -81 -309 -5 -10 -126 16 -339 73 l-37 9 80 316 c43
174 77 318 75 320 -2 3 -174 47 -383 100 -208 53 -380 97 -381 98 -3 2 176
418 183 425 2 2 69 -13 148 -33 80 -20 159 -36 176 -36 39 0 82 22 108 54 13
17 62 196 147 536 103 411 131 510 144 510 13 0 13 2 2 9 -12 7 1 69 73 355
47 190 86 366 86 391 0 85 -43 146 -130 183 -25 11 -107 35 -182 53 -76 18
-138 37 -138 42 0 8 87 363 95 384 2 8 123 -19 380 -84 207 -52 381 -93 388
-90 7 2 45 139 86 303 41 165 76 302 78 307 6 11 11 10 191 -34z"/>
<path d="M3471 4582 c-51 -193 -183 -734 -179 -737 2 -2 68 -20 145 -40 335
-84 551 -86 695 -8 61 33 103 80 137 153 21 46 26 70 26 145 0 75 -4 98 -24
140 -53 109 -200 213 -393 279 -60 21 -259 73 -380 100 -13 3 -20 -5 -27 -32z"/>
<path d="M3180 3421 c-36 -135 -198 -806 -195 -809 9 -9 322 -84 435 -103 164
-29 376 -31 470 -5 131 36 208 97 258 205 23 48 27 70 27 151 0 83 -3 102 -27
150 -75 153 -266 271 -593 365 -87 25 -338 85 -355 85 -5 0 -14 -17 -20 -39z"/>
</g>
</svg>
